<?xml version="1.0" encoding="utf-8"?>
<!-- Generator: Adobe Illustrator 16.0.0, SVG Export Plug-In . SVG Version: 6.00 Build 0)  -->
<!DOCTYPE svg PUBLIC "-//W3C//DTD SVG 1.1//EN" "http://www.w3.org/Graphics/SVG/1.1/DTD/svg11.dtd">
<svg version="1.1" xmlns="http://www.w3.org/2000/svg" xmlns:xlink="http://www.w3.org/1999/xlink" x="0px" y="0px"
	 width="1309.609px" height="685.98px" viewBox="0 0 1309.609 685.98" enable-background="new 0 0 1309.609 685.98"
	 xml:space="preserve">
<g id="背景">
	<rect id="背景_1_" x="0" y="0" onmousedown="Load_Menu(evt,'menu_common')" fill="#040000" width="1309.609" height="685.98"/>
</g>
<g id="图层_1">
	<g id="灰色变电站">
		<g id="灰色变电站_1_">
			
				<rect id="锦堂变" x="246.88" y="30.146" fill="#B5B5B6" stroke="#000000" stroke-miterlimit="10" width="54.859" height="24.283"/>
			
				<rect id="水云变" x="50.793" y="27.622" fill="#B5B5B6" stroke="#000000" stroke-miterlimit="10" width="54.859" height="24.283"/>
			
				<rect id="达蓬变" x="358.728" y="30.05" fill="#B5B5B6" stroke="#000000" stroke-miterlimit="10" width="54.854" height="24.283"/>
			
				<rect id="江南变" x="839.392" y="27.622" fill="#B5B5B6" stroke="#000000" stroke-miterlimit="10" width="54.858" height="24.283"/>
			
				<rect id="亚浆电厂" x="944.16" y="27.622" fill="#B5B5B6" stroke="#000000" stroke-miterlimit="10" width="54.859" height="24.283"/>
			
				<rect id="台塑电厂" x="1216.699" y="24.283" fill="#B5B5B6" stroke="#000000" stroke-miterlimit="10" width="54.859" height="24.283"/>
			
				<rect id="北仑_x23_1机" x="714.702" y="29.138" fill="#B5B5B6" stroke="#000000" stroke-miterlimit="10" width="62.849" height="24.275"/>
			
				<rect id="莲花变" x="13.983" y="110.789" fill="#B5B5B6" stroke="#000000" stroke-miterlimit="10" width="54.86" height="24.283"/>
			
				<rect id="双浦变" x="123.706" y="111.396" fill="#B5B5B6" stroke="#000000" stroke-miterlimit="10" width="54.859" height="24.283"/>
			
				<rect id="淞浦变" x="268.117" y="75.882" fill="#B5B5B6" stroke="#000000" stroke-miterlimit="10" width="54.859" height="24.283"/>
			
				<rect id="镇海燃气" x="414.298" y="83.472" fill="#B5B5B6" stroke="#000000" stroke-miterlimit="10" width="54.859" height="24.275"/>
			
				<rect id="镇海电厂" x="558.356" y="114.431" fill="#B5B5B6" stroke="#000000" stroke-miterlimit="10" width="58.047" height="24.275"/>
			
				<rect id="邬隘变" x="717.635" y="102.594" fill="#B5B5B6" stroke="#000000" stroke-miterlimit="10" width="54.854" height="24.275"/>
			
				<rect id="贤江变" x="48.669" y="187.582" fill="#B5B5B6" stroke="#000000" stroke-miterlimit="10" width="54.859" height="24.283"/>
			
				<rect id="慈溪变" x="269.533" y="157.532" fill="#B5B5B6" stroke="#000000" stroke-miterlimit="10" width="54.859" height="24.283"/>
			
				<rect id="泓口电厂" x="331.828" y="158.443" fill="#B5B5B6" stroke="#000000" stroke-miterlimit="10" width="58.229" height="24.283"/>
			
				<rect id="殿跟变" x="416.068" y="158.443" fill="#B5B5B6" stroke="#000000" stroke-miterlimit="10" width="54.86" height="24.283"/>
			
				<rect id="浙炼变" x="508.094" y="159.05" fill="#B5B5B6" stroke="#000000" stroke-miterlimit="10" width="59.639" height="24.283"/>
			
				<rect id="新乐变" x="716.219" y="158.443" fill="#B5B5B6" stroke="#000000" stroke-miterlimit="10" width="54.854" height="24.283"/>
			
				<rect id="芦江变" x="1216.699" y="151.159" fill="#B5B5B6" stroke="#000000" stroke-miterlimit="10" width="54.859" height="24.283"/>
			
				<rect id="候青变" x="413.236" y="242.521" fill="#B5B5B6" stroke="#000000" stroke-miterlimit="10" width="54.86" height="24.283"/>
			
				<rect id="冷岙变" x="1120.427" y="229.773" fill="#B5B5B6" stroke="#000000" stroke-miterlimit="10" width="54.854" height="24.283"/>
			
				<rect id="咸祥变" x="1014.948" y="291.693" fill="#B5B5B6" stroke="#000000" stroke-miterlimit="10" width="54.859" height="24.283"/>
			
				<rect id="屯山变" x="18.938" y="488.385" fill="#B5B5B6" stroke="#000000" stroke-miterlimit="10" width="54.854" height="24.28"/>
			
				<rect id="阳明变" x="202.991" y="488.385" fill="#B5B5B6" stroke="#000000" stroke-miterlimit="10" width="54.859" height="24.28"/>
			
				<rect id="洪塘变" x="473.406" y="425.248" fill="#B5B5B6" stroke="#000000" stroke-miterlimit="10" width="54.86" height="24.282"/>
			
				<rect id="宁西变" x="564.018" y="464.706" fill="#B5B5B6" stroke="#000000" stroke-miterlimit="10" width="54.86" height="24.282"/>
			
				<rect id="曲池变" x="959.385" y="484.739" fill="#B5B5B6" stroke="#000000" stroke-miterlimit="10" width="54.854" height="24.282"/>
			
				<rect id="溪凤变" x="390.938" y="547.57" fill="#B5B5B6" stroke="#000000" stroke-miterlimit="10" width="54.86" height="24.282"/>
			
				<rect id="澄浪变" x="519.427" y="547.266" fill="#B5B5B6" stroke="#000000" stroke-miterlimit="10" width="54.854" height="24.282"/>
			
				<rect id="潘桥变" x="617.111" y="547.57" fill="#B5B5B6" stroke="#000000" stroke-miterlimit="10" width="54.86" height="24.282"/>
			
				<rect id="惠明变" x="682.237" y="548.784" fill="#B5B5B6" stroke="#000000" stroke-miterlimit="10" width="54.859" height="24.282"/>
			
				<rect id="蔡郎变" x="814.614" y="547.569" fill="#B5B5B6" stroke="#000000" stroke-miterlimit="10" width="54.859" height="24.282"/>
			
				<rect id="广济变" x="943.45" y="547.569" fill="#B5B5B6" stroke="#000000" stroke-miterlimit="10" width="54.859" height="24.282"/>
			
				<rect id="奉化变" x="1011.409" y="548.177" fill="#B5B5B6" stroke="#000000" stroke-miterlimit="10" width="54.859" height="24.281"/>
			
				<rect id="通济变" x="207.946" y="596.85" fill="#B5B5B6" stroke="#000000" stroke-miterlimit="10" width="54.86" height="24.282"/>
			
				<rect id="华舜电厂" x="393.416" y="597.35" fill="#B5B5B6" stroke="#000000" stroke-miterlimit="10" width="54.859" height="24.282"/>
			
				<rect id="梅梁变" x="476.946" y="615.864" fill="#B5B5B6" stroke="#000000" stroke-miterlimit="10" width="54.86" height="24.282"/>
			
				<rect id="跃龙变" x="1077.244" y="548.48" fill="#B5B5B6" stroke="#000000" stroke-miterlimit="10" width="54.859" height="24.282"/>
		</g>
	</g>
	<g id="绿色变电站">
		<g id="绿色变电站_1_">
			
				<rect id="湾塘变" x="480.486" y="28.934" fill="#009944" stroke="#000000" stroke-miterlimit="10" width="54.86" height="24.275"/>
			
				<rect id="蛟川变" x="604.368" y="29.138" fill="#009944" stroke="#000000" stroke-miterlimit="10" width="54.861" height="24.275"/>
			
				<rect id="甬钢变" x="1048.221" y="25.193" fill="#009944" stroke="#000000" stroke-miterlimit="10" width="54.854" height="24.283"/>
			
				<rect id="沙湾变" x="1150.865" y="25.193" fill="#009944" stroke="#000000" stroke-miterlimit="10" width="54.859" height="24.283"/>
			
				<rect id="桑田变" x="809.658" y="158.14" fill="#009944" stroke="#000000" stroke-miterlimit="10" width="54.859" height="24.275"/>
			
				<rect id="下应变" x="910.889" y="157.229" fill="#009944" stroke="#000000" stroke-miterlimit="10" width="54.859" height="24.283"/>
			
				<rect id="翠屏变" x="47.961" y="275.607" fill="#009944" stroke="#000000" stroke-miterlimit="10" width="54.859" height="24.283"/>
			
				<rect id="牛牵变" x="400.495" y="289.568" fill="#009944" stroke="#000000" stroke-miterlimit="10" width="47.958" height="24.283"/>
			
				<rect id="武胜变" x="110.965" y="489.091" fill="#009944" stroke="#000000" stroke-miterlimit="10" width="54.86" height="24.274"/>
			
				<rect id="梨洲变" x="321.209" y="488.385" fill="#009944" stroke="#000000" stroke-miterlimit="10" width="54.859" height="24.28"/>
			
				<rect id="鲍家变" x="748.072" y="549.094" fill="#009944" stroke="#000000" stroke-miterlimit="10" width="54.859" height="24.274"/>
			
				<rect id="奉牵变" x="814.614" y="605.241" fill="#009944" stroke="#000000" stroke-miterlimit="10" width="54.86" height="24.282"/>
			
				<rect id="雁苍变" x="1140.249" y="548.48" fill="#009944" stroke="#000000" stroke-miterlimit="10" width="54.857" height="24.282"/>
			
				<rect id="象北变" x="1203.958" y="547.873" fill="#009944" stroke="#000000" stroke-miterlimit="10" width="54.858" height="24.282"/>
			
				<rect id="衣亭变" x="1203.958" y="607.677" fill="#009944" stroke="#000000" stroke-miterlimit="10" width="54.858" height="24.274"/>
		</g>
	</g>
	<g id="红色变电站">
		<g id="红色变电站_1_">
			
				<rect id="句章变" x="163.524" y="164.21" fill="#E60012" stroke="#000000" stroke-miterlimit="10" width="70.791" height="33.396"/>
			
				<rect id="春晓变" x="1028.573" y="151.766" fill="#E60012" stroke="#000000" stroke-miterlimit="10" width="70.791" height="33.388"/>
			
				<rect id="姚江变" x="551.451" y="203.669" fill="#E60012" stroke="#000000" stroke-miterlimit="10" width="70.791" height="33.396"/>
			
				<rect id="北仑电厂" x="370.584" y="316.591" fill="#E60012" stroke="#000000" stroke-miterlimit="10" width="70.792" height="33.388"/>
			
				<rect id="胜龙电厂" x="1252.626" y="317.191" fill="#E60012" stroke="#000000" stroke-miterlimit="10" width="50.268" height="33.388"/>
			
				<rect id="河姆变" x="239.269" y="373.149" fill="#E60012" stroke="#000000" stroke-miterlimit="10" width="70.791" height="33.388"/>
			
				<rect id="天一变" x="704.358" y="371.826" fill="#E60012" stroke="#000000" stroke-miterlimit="10" width="70.791" height="33.396"/>
			
				<rect id="宁海变" x="986.811" y="371.826" fill="#E60012" stroke="#000000" stroke-miterlimit="10" width="84.594" height="33.396"/>
		</g>
	</g>
	<g id="紫色变电站">
		<g id="紫色变电站_1_">
			
				<rect id="虞北变" x="117.511" y="598.866" fill="#7E318E" stroke="#000000" stroke-miterlimit="10" width="53.092" height="21.247"/>
			
				<rect id="上虞变_1_" x="16.99" y="640.146" fill="#7E318E" stroke="#000000" stroke-miterlimit="10" width="53.092" height="21.247"/>
		</g>
	</g>
	<g id="蓝色变电站">
		<g id="蓝色变电站_1_">
			
				<rect id="绍兴供区" x="53.801" y="367.885" fill="#1D2088" stroke="#000000" stroke-miterlimit="10" width="82.824" height="37.637"/>
		</g>
	</g>
	<g id="灰色变电站文字_1_">
		<text transform="matrix(1 0 0 1 815.4988 559.3435)" font-family="'AdobeSongStd-Light-GBpc-EUC-H'" font-size="12">蔡郎变</text>
		<text transform="matrix(1 0 0 1 682.7683 560.2537)" font-family="'AdobeSongStd-Light-GBpc-EUC-H'" font-size="12">惠明变</text>
		<text transform="matrix(1 0 0 1 617.9949 559.3435)" font-family="'AdobeSongStd-Light-GBpc-EUC-H'" font-size="12">潘桥变</text>
		<text transform="matrix(1 0 0 1 477.8318 627.9412)" font-family="'AdobeSongStd-Light-GBpc-EUC-H'" font-size="12">梅梁变</text>
		<text transform="matrix(1 0 0 1 520.3049 559.3435)" font-family="'AdobeSongStd-Light-GBpc-EUC-H'" font-size="12">澄浪变</text>
		<text transform="matrix(1 0 0 1 564.9021 476.7849)" font-family="'AdobeSongStd-Light-GBpc-EUC-H'" font-size="12">宁西变</text>
		<text transform="matrix(1 0 0 1 474.2917 437.3259)" font-family="'AdobeSongStd-Light-GBpc-EUC-H'" font-size="12">洪塘变</text>
		
			<text id="华舜电厂_1_" transform="matrix(1 0 0 1 394.3 609.7312)" font-family="'AdobeSongStd-Light-GBpc-EUC-H'" font-size="12">华舜电厂</text>
		<text transform="matrix(1 0 0 1 391.4675 559.3435)" font-family="'AdobeSongStd-Light-GBpc-EUC-H'" font-size="12">溪凤变</text>
		<text transform="matrix(1 0 0 1 208.8308 609.1228)" font-family="'AdobeSongStd-Light-GBpc-EUC-H'" font-size="12">通济变</text>
		<text transform="matrix(1 0 0 1 203.8752 500.7634)" font-family="'AdobeSongStd-Light-GBpc-EUC-H'" font-size="12">阳明变</text>
		<text transform="matrix(1 0 0 1 19.822 500.4607)" font-family="'AdobeSongStd-Light-GBpc-EUC-H'" font-size="12">屯山变</text>
		<text transform="matrix(1 0 0 1 944.3367 559.0398)" font-family="'AdobeSongStd-Light-GBpc-EUC-H'" font-size="12">广济变</text>
		<text transform="matrix(1 0 0 1 960.6179 496.8152)" font-family="'AdobeSongStd-Light-GBpc-EUC-H'" font-size="12">曲池变</text>
		<text transform="matrix(1 0 0 1 1012.2957 559.9509)" font-family="'AdobeSongStd-Light-GBpc-EUC-H'" font-size="12">奉化变</text>
		<text transform="matrix(1 0 0 1 1078.1296 560.2537)" font-family="'AdobeSongStd-Light-GBpc-EUC-H'" font-size="12">跃龙变</text>
		<text transform="matrix(1 0 0 1 1015.8347 303.7712)" font-family="'AdobeSongStd-Light-GBpc-EUC-H'" font-size="12">咸祥变</text>
		<text transform="matrix(1 0 0 1 1121.3093 241.8513)" font-family="'AdobeSongStd-Light-GBpc-EUC-H'" font-size="12">冷岙变</text>
		<text transform="matrix(1 0 0 1 414.1208 254.2937)" font-family="'AdobeSongStd-Light-GBpc-EUC-H'" font-size="12">候青变</text>
		<text transform="matrix(1 0 0 1 49.5544 199.3562)" font-family="'AdobeSongStd-Light-GBpc-EUC-H'" font-size="12">贤江变</text>
		<text transform="matrix(1 0 0 1 14.8679 122.8669)" font-family="'AdobeSongStd-Light-GBpc-EUC-H'" font-size="12">莲花变</text>
		<text transform="matrix(1 0 0 1 124.592 123.4734)" font-family="'AdobeSongStd-Light-GBpc-EUC-H'" font-size="12">双浦变</text>
		<text transform="matrix(1 0 0 1 270.4172 169.6101)" font-family="'AdobeSongStd-Light-GBpc-EUC-H'" font-size="12">慈溪变</text>
		<text transform="matrix(1 0 0 1 332.3601 170.2175)" font-family="'AdobeSongStd-Light-GBpc-EUC-H'" font-size="12">泓口电厂</text>
		<text transform="matrix(1 0 0 1 269.0017 88.2644)" font-family="'AdobeSongStd-Light-GBpc-EUC-H'" font-size="12">松浦变</text>
		<text transform="matrix(1 0 0 1 416.9519 170.824)" font-family="'AdobeSongStd-Light-GBpc-EUC-H'" font-size="12">殿跟变</text>
		<text transform="matrix(1 0 0 1 414.8279 95.5496)" font-family="'AdobeSongStd-Light-GBpc-EUC-H'" font-size="12">镇海燃气</text>
		<text transform="matrix(1 0 0 1 509.3328 170.824)" font-family="'AdobeSongStd-Light-GBpc-EUC-H'" font-size="12">浙炼变</text>
		<text transform="matrix(1 0 0 1 559.2419 126.5085)" font-family="'AdobeSongStd-Light-GBpc-EUC-H'" font-size="12">镇海电厂</text>
		<text transform="matrix(1 0 0 1 717.1003 170.2175)" font-family="'AdobeSongStd-Light-GBpc-EUC-H'" font-size="12">新乐变</text>
		<text transform="matrix(1 0 0 1 718.5183 114.3679)" font-family="'AdobeSongStd-Light-GBpc-EUC-H'" font-size="12">邬隘变</text>
		<text transform="matrix(1 0 0 1 1217.5847 162.9333)" font-family="'AdobeSongStd-Light-GBpc-EUC-H'" font-size="12">芦江变</text>
		<text transform="matrix(1 0 0 1 1217.5847 36.0564)" font-family="'AdobeSongStd-Light-GBpc-EUC-H'" font-size="12">台塑电厂</text>
		<text transform="matrix(1 0 0 1 945.0457 39.699)" font-family="'AdobeSongStd-Light-GBpc-EUC-H'" font-size="12">亚浆电厂</text>
		<text transform="matrix(1 0 0 1 840.2761 39.699)" font-family="'AdobeSongStd-Light-GBpc-EUC-H'" font-size="12">江南变</text>
		<text transform="matrix(1 0 0 1 359.613 42.2244)" font-family="'AdobeSongStd-Light-GBpc-EUC-H'" font-size="12">达蓬变</text>
		<text transform="matrix(1 0 0 1 247.7654 41.2175)" font-family="'AdobeSongStd-Light-GBpc-EUC-H'" font-size="12">锦堂变</text>
		<text transform="matrix(1 0 0 1 51.6775 39.3962)" font-family="'AdobeSongStd-Light-GBpc-EUC-H'" font-size="12">水云变</text>
		<text transform="matrix(1 0 0 1 715.6863 41.5212)" font-family="'AdobeSongStd-Light-GBpc-EUC-H'" font-size="12">北仑</text>
		<text transform="matrix(1 0 0 1 739.6863 41.5212)" font-family="'ArialMT'" font-size="12">#1</text>
		<text transform="matrix(1 0 0 1 753.0349 41.5212)" font-family="'AdobeSongStd-Light-GBpc-EUC-H'" font-size="12">机</text>
	</g>
	<g id="绿色变电站文字">
		<text transform="matrix(1 0 0 1 481.3699 40.9148)" font-family="'AdobeSongStd-Light-GBpc-EUC-H'" font-size="12">湾塘变</text>
		<text transform="matrix(1 0 0 1 605.2527 40.9148)" font-family="'AdobeSongStd-Light-GBpc-EUC-H'" font-size="12">蛟川变</text>
		<text transform="matrix(1 0 0 1 1049.1042 37.2703)" font-family="'AdobeSongStd-Light-GBpc-EUC-H'" font-size="12">甬钢变</text>
		<text transform="matrix(1 0 0 1 1151.7488 37.2703)" font-family="'AdobeSongStd-Light-GBpc-EUC-H'" font-size="12">沙湾变</text>
		<text transform="matrix(1 0 0 1 810.5437 170.2175)" font-family="'AdobeSongStd-Light-GBpc-EUC-H'" font-size="12">桑田变</text>
		<text transform="matrix(1 0 0 1 911.7712 168.3962)" font-family="'AdobeSongStd-Light-GBpc-EUC-H'" font-size="12">下应变</text>
		<text transform="matrix(1 0 0 1 48.8459 287.3806)" font-family="'AdobeSongStd-Light-GBpc-EUC-H'" font-size="12">翠屏变</text>
		<text transform="matrix(1 0 0 1 402.0857 301.95)" font-family="'AdobeSongStd-Light-GBpc-EUC-H'" font-size="12">牛牵变</text>
		<text transform="matrix(1 0 0 1 111.8484 501.0662)" font-family="'AdobeSongStd-Light-GBpc-EUC-H'" font-size="12">武胜变</text>
		<text transform="matrix(1 0 0 1 322.0945 500.4607)" font-family="'AdobeSongStd-Light-GBpc-EUC-H'" font-size="12">梨洲变</text>
		<text transform="matrix(1 0 0 1 748.9558 561.1658)" font-family="'AdobeSongStd-Light-GBpc-EUC-H'" font-size="12">鲍家变</text>
		<text transform="matrix(1 0 0 1 815.4968 617.0154)" font-family="'AdobeSongStd-Light-GBpc-EUC-H'" font-size="12">奉牵变</text>
		<text transform="matrix(1 0 0 1 1141.1316 560.5583)" font-family="'AdobeSongStd-Light-GBpc-EUC-H'" font-size="12">雁苍变</text>
		<text transform="matrix(1 0 0 1 1204.8425 559.9509)" font-family="'AdobeSongStd-Light-GBpc-EUC-H'" font-size="12">象北变</text>
		<text transform="matrix(1 0 0 1 1204.8425 619.4451)" font-family="'AdobeSongStd-Light-GBpc-EUC-H'" font-size="12">衣亭变</text>
	</g>
	<g id="红色变电站文字">
		<text transform="matrix(1 0 0 1 163.5251 175.075)" font-family="'AdobeSongStd-Light-GBpc-EUC-H'" font-size="12">句章变</text>
		<text transform="matrix(1 0 0 1 239.2693 383.9041)" font-family="'AdobeSongStd-Light-GBpc-EUC-H'" font-size="12">河姆变</text>
		<text transform="matrix(1 0 0 1 370.9382 328.6619)" font-family="'AdobeSongStd-Light-GBpc-EUC-H'" font-size="12">北仑电厂</text>
		<text transform="matrix(1 0 0 1 551.4519 215.7478)" font-family="'AdobeSongStd-Light-GBpc-EUC-H'" font-size="12">姚江变</text>
		<text transform="matrix(1 0 0 1 704.3591 383.9041)" font-family="'AdobeSongStd-Light-GBpc-EUC-H'" font-size="12">天一变</text>
		<text transform="matrix(1 0 0 1 1028.575 163.5398)" font-family="'AdobeSongStd-Light-GBpc-EUC-H'" font-size="12">春晓变</text>
		<text transform="matrix(1 0 0 1 987.5193 383.9041)" font-family="'AdobeSongStd-Light-GBpc-EUC-H'" font-size="12">宁海变</text>
		<text transform="matrix(1 0 0 1 1254.3894 329.2693)" font-family="'AdobeSongStd-Light-GBpc-EUC-H'" font-size="12">胜龙电厂</text>
	</g>
	<g id="紫色变电站文字">
		<text transform="matrix(1 0 0 1 117.5129 609.1228)" font-family="'AdobeSongStd-Light-GBpc-EUC-H'" font-size="12">上虞变</text>
		<text transform="matrix(1 0 0 1 16.9919 650.4041)" font-family="'AdobeSongStd-Light-GBpc-EUC-H'" font-size="12">虞北变</text>
	</g>
	<g id="蓝色变电站文字">
		<text transform="matrix(1 0 0 1 53.801 378.4412)" font-family="'AdobeSongStd-Light-GBpc-EUC-H'" font-size="12">绍兴供区</text>
	</g>
	<g id="路径">
		<polyline fill="none" stroke="#FFFFFF" stroke-miterlimit="10" points="105.476,39.46 193.963,39.46 193.963,164.514 		"/>
		<polyline fill="none" stroke="#FFFFFF" stroke-miterlimit="10" points="104.764,45.53 186.178,45.53 186.178,163.907 		"/>
		<line fill="none" stroke="#FFFFFF" stroke-miterlimit="10" x1="63.003" y1="50.387" x2="63.003" y2="112.307"/>
		<line fill="none" stroke="#FFFFFF" stroke-miterlimit="10" x1="55.216" y1="50.387" x2="55.216" y2="110.485"/>
		<line fill="none" stroke="#FFFFFF" stroke-miterlimit="10" x1="68.667" y1="118.984" x2="123.882" y2="118.984"/>
		<line fill="none" stroke="#FFFFFF" stroke-miterlimit="10" x1="67.958" y1="126.876" x2="123.882" y2="126.876"/>
		<line fill="none" stroke="#FFFFFF" stroke-miterlimit="10" x1="55.924" y1="133.554" x2="55.924" y2="188.791"/>
		<line fill="none" stroke="#FFFFFF" stroke-miterlimit="10" x1="63.711" y1="133.554" x2="63.711" y2="188.184"/>
		<polyline fill="none" stroke="#FFFFFF" stroke-miterlimit="10" points="150.783,135.375 150.782,172.406 162.109,172.406 		"/>
		<polyline fill="none" stroke="#FFFFFF" stroke-miterlimit="10" points="141.579,134.767 141.579,182.118 162.109,182.118 		"/>
		<polyline fill="none" stroke="#FFFFFF" stroke-miterlimit="10" points="244.225,38.245 202.46,38.245 202.458,163.907 		"/>
		<polyline fill="none" stroke="#FFFFFF" stroke-miterlimit="10" points="245.641,44.923 209.539,44.923 209.538,163.907 		"/>
		<polyline fill="none" stroke="#FFFFFF" stroke-miterlimit="10" points="264.749,84.382 223.696,84.382 223.696,165.121 		"/>
		<polyline fill="none" stroke="#FFFFFF" stroke-miterlimit="10" points="266.164,91.06 232.19,91.06 232.19,164.514 		"/>
		<line fill="none" stroke="#FFFFFF" stroke-miterlimit="10" x1="300.148" y1="38.853" x2="357.484" y2="38.853"/>
		<line fill="none" stroke="#FFFFFF" stroke-miterlimit="10" x1="300.148" y1="45.53" x2="356.067" y2="45.53"/>
		<line fill="none" stroke="#FFFFFF" stroke-miterlimit="10" x1="290.238" y1="99.558" x2="290.238" y2="158.443"/>
		<line fill="none" stroke="#FFFFFF" stroke-miterlimit="10" x1="298.733" y1="99.558" x2="298.733" y2="159.044"/>
		<polyline fill="none" stroke="#FFFFFF" stroke-miterlimit="10" points="368.814,53.422 368.814,88.024 322.807,88.024 		"/>
		<polyline fill="none" stroke="#FFFFFF" stroke-miterlimit="10" points="375.186,53.422 375.186,94.708 322.807,94.702 		"/>
		<polyline fill="none" stroke="#FFFFFF" stroke-miterlimit="10" points="411.996,38.245 445.268,38.245 445.268,83.774 		"/>
		<polyline fill="none" stroke="#FFFFFF" stroke-miterlimit="10" points="411.289,44.316 436.773,44.316 436.773,83.774 		"/>
		<line fill="none" stroke="#FFFFFF" stroke-miterlimit="10" x1="442.437" y1="106.237" x2="442.437" y2="160.264"/>
		<line fill="none" stroke="#FFFFFF" stroke-miterlimit="10" x1="434.649" y1="108.665" x2="434.649" y2="159.05"/>
		<polyline fill="none" stroke="#FFFFFF" stroke-miterlimit="10" points="513.226,51.601 513.226,91.06 582.6,91.06 582.6,114.122 
					"/>
		<polyline fill="none" stroke="#FFFFFF" stroke-miterlimit="10" points="503.316,52.208 503.316,96.523 574.105,96.523 
			574.105,114.125 		"/>
		<polyline fill="none" stroke="#FFFFFF" stroke-miterlimit="10" points="626.489,53.422 626.489,92.273 595.348,92.273 
			595.344,114.735 		"/>
		<polyline fill="none" stroke="#FFFFFF" stroke-miterlimit="10" points="634.276,52.815 634.276,99.56 605.26,99.558 
			605.259,114.736 		"/>
		<line fill="none" stroke="#FFFFFF" stroke-miterlimit="10" x1="734.802" y1="52.815" x2="734.802" y2="103.2"/>
		<line fill="none" stroke="#FFFFFF" stroke-miterlimit="10" x1="744.009" y1="52.208" x2="744.009" y2="101.379"/>
		<polyline fill="none" stroke="#FFFFFF" stroke-miterlimit="10" points="860.803,52.208 860.803,110.485 773.02,110.485 		"/>
		<line fill="none" stroke="#FFFFFF" stroke-miterlimit="10" x1="743.3" y1="126.269" x2="743.3" y2="158.444"/>
		<polyline fill="none" stroke="#FFFFFF" stroke-miterlimit="10" points="775.149,116.556 1045.565,116.558 1045.565,152.373 		"/>
		<polyline fill="none" stroke="#FFFFFF" stroke-miterlimit="10" points="775.149,122.626 1037.069,122.627 1037.069,151.159 		"/>
		<polyline fill="none" stroke="#FFFFFF" stroke-miterlimit="10" points="868.594,52.208 868.597,81.346 1052.644,81.346 
			1052.644,152.373 		"/>
		<polyline fill="none" stroke="#FFFFFF" stroke-miterlimit="10" points="877.087,55.243 877.087,75.883 1061.14,75.883 
			1061.14,154.194 		"/>
		<line fill="none" stroke="#FFFFFF" stroke-miterlimit="10" x1="894.781" y1="40.674" x2="945.751" y2="40.674"/>
		<line fill="none" stroke="#FFFFFF" stroke-miterlimit="10" x1="1071.052" y1="47.958" x2="1071.052" y2="151.766"/>
		<line fill="none" stroke="#FFFFFF" stroke-miterlimit="10" x1="1078.135" y1="49.172" x2="1078.135" y2="151.766"/>
		<polyline fill="none" stroke="#FFFFFF" stroke-miterlimit="10" points="1170.154,47.958 1170.158,92.273 1088.037,92.273 
			1088.037,152.373 		"/>
		<polyline fill="none" stroke="#FFFFFF" stroke-miterlimit="10" points="1182.188,49.172 1182.194,99.558 1095.117,99.558 
			1095.117,152.979 		"/>
		<line fill="none" stroke="#FFFFFF" stroke-miterlimit="10" x1="1237.406" y1="45.53" x2="1237.406" y2="152.372"/>
		<line fill="none" stroke="#FFFFFF" stroke-miterlimit="10" x1="1245.899" y1="46.137" x2="1245.899" y2="152.371"/>
		<line fill="none" stroke="#FFFFFF" stroke-miterlimit="10" x1="1100.073" y1="158.443" x2="1216.169" y2="158.443"/>
		<line fill="none" stroke="#FFFFFF" stroke-miterlimit="10" x1="1100.073" y1="165.728" x2="1217.583" y2="165.728"/>
		<line fill="none" stroke="#FFFFFF" stroke-miterlimit="10" x1="1028.574" y1="163.3" x2="991.061" y2="163.3"/>
		<line fill="none" stroke="#FFFFFF" stroke-miterlimit="10" x1="1028.574" y1="171.191" x2="991.061" y2="171.191"/>
		<polyline fill="none" stroke="#FFFFFF" stroke-miterlimit="10" points="605.259,139.017 605.259,169.977 712.854,169.977 		"/>
		<polyline fill="none" stroke="#FFFFFF" stroke-miterlimit="10" points="597.469,137.803 597.467,177.262 712.854,177.262 		"/>
		<line fill="none" stroke="#FFFFFF" stroke-miterlimit="10" x1="583.307" y1="137.803" x2="583.307" y2="204.58"/>
		<line fill="none" stroke="#FFFFFF" stroke-miterlimit="10" x1="575.521" y1="137.803" x2="575.521" y2="204.58"/>
		<line fill="none" stroke="#FFFFFF" stroke-miterlimit="10" x1="470.759" y1="170.584" x2="509.685" y2="170.584"/>
		<line fill="none" stroke="#FFFFFF" stroke-miterlimit="10" x1="470.759" y1="176.655" x2="509.685" y2="176.655"/>
		<line fill="none" stroke="#FFFFFF" stroke-miterlimit="10" x1="390.056" y1="169.371" x2="414.12" y2="169.371"/>
		<line fill="none" stroke="#FFFFFF" stroke-miterlimit="10" x1="390.056" y1="174.834" x2="414.828" y2="174.834"/>
		<polyline fill="none" stroke="#FFFFFF" stroke-miterlimit="10" points="68.667,210.651 68.667,266.5 259.09,266.5 259.09,374.557 
					"/>
		<polyline fill="none" stroke="#FFFFFF" stroke-miterlimit="10" points="76.453,211.865 76.453,260.43 266.878,260.43 
			266.878,374.557 		"/>
		<polyline fill="none" stroke="#FFFFFF" stroke-miterlimit="10" points="172.727,197.902 172.727,373.344 136.626,373.344 		"/>
		<polyline fill="none" stroke="#FFFFFF" stroke-miterlimit="10" points="180.515,197.902 180.515,380.021 137.333,380.021 		"/>
		<polyline fill="none" stroke="#FFFFFF" stroke-miterlimit="10" points="217.325,197.295 217.325,333.277 370.23,333.277 		"/>
		<polyline fill="none" stroke="#FFFFFF" stroke-miterlimit="10" points="225.82,197.902 225.82,326.6 369.523,326.6 		"/>
		<polyline fill="none" stroke="#FFFFFF" stroke-miterlimit="10" points="289.531,180.299 289.53,251.931 275.373,251.931 
			275.373,374.557 		"/>
		<polyline fill="none" stroke="#FFFFFF" stroke-miterlimit="10" points="298.025,180.903 298.025,258.609 283.159,258.609 
			283.159,374.557 		"/>
		<polyline fill="none" stroke="#FFFFFF" stroke-miterlimit="10" points="413.415,251.325 324.219,251.325 324.219,279.248 
			292.362,279.248 292.362,372.736 		"/>
		<polyline fill="none" stroke="#FFFFFF" stroke-miterlimit="10" points="413.415,258.609 332.711,258.609 332.706,287.749 
			301.564,287.745 301.564,373.344 		"/>
		<line fill="none" stroke="#FFFFFF" stroke-miterlimit="10" x1="421.198" y1="267.714" x2="421.198" y2="290.783"/>
		<line fill="none" stroke="#FFFFFF" stroke-miterlimit="10" x1="429.694" y1="267.107" x2="429.694" y2="290.17"/>
		<polyline fill="none" stroke="#FFFFFF" stroke-miterlimit="10" points="553.574,212.472 492.696,212.472 492.696,325.992 
			442.437,325.992 		"/>
		<polyline fill="none" stroke="#FFFFFF" stroke-miterlimit="10" points="555.699,226.435 515.349,226.435 515.349,378.201 
			312.183,378.201 		"/>
		<polyline fill="none" stroke="#FFFFFF" stroke-miterlimit="10" points="554.283,233.719 525.969,233.719 525.969,385.483 
			309.35,385.483 		"/>
		<polyline fill="none" stroke="#FFFFFF" stroke-miterlimit="10" points="563.486,235.54 563.486,433.444 528.805,433.443 		"/>
		<polyline fill="none" stroke="#FFFFFF" stroke-miterlimit="10" points="571.98,234.933 571.98,441.941 529.51,441.941 		"/>
		<line fill="none" stroke="#FFFFFF" stroke-miterlimit="10" x1="601.719" y1="235.54" x2="601.719" y2="465.619"/>
		<line fill="none" stroke="#FFFFFF" stroke-miterlimit="10" x1="610.207" y1="234.933" x2="610.207" y2="465.618"/>
		<polyline fill="none" stroke="#FFFFFF" stroke-miterlimit="10" points="734.802,181.511 734.802,248.896 712.854,248.896 
			712.854,372.736 		"/>
		<polyline fill="none" stroke="#FFFFFF" stroke-miterlimit="10" points="742.591,181.518 742.591,255.574 721.349,255.58 
			721.349,372.135 		"/>
		<polyline fill="none" stroke="#FFFFFF" stroke-miterlimit="10" points="831.78,180.298 831.781,276.214 729.844,276.214 
			729.844,372.736 		"/>
		<polyline fill="none" stroke="#FFFFFF" stroke-miterlimit="10" points="840.981,181.514 840.981,281.676 736.927,281.677 
			736.927,373.95 		"/>
		<polyline fill="none" stroke="#FFFFFF" stroke-miterlimit="10" points="933.01,178.476 933.009,288.354 744.707,288.354 
			744.707,374.557 		"/>
		<polyline fill="none" stroke="#FFFFFF" stroke-miterlimit="10" points="940.802,179.69 940.794,294.425 751.786,294.425 
			751.786,373.95 		"/>
		<polyline fill="none" stroke="#FFFFFF" stroke-miterlimit="10" points="1015.835,301.718 759.573,301.718 759.573,372.135 		"/>
		<polyline fill="none" stroke="#FFFFFF" stroke-miterlimit="10" points="1015.126,308.387 766.653,308.39 766.653,372.135 		"/>
		<polyline fill="none" stroke="#FFFFFF" stroke-miterlimit="10" points="1039.902,183.333 1039.902,249.503 880.624,249.503 
			880.624,378.807 775.855,378.202 		"/>
		<polyline fill="none" stroke="#FFFFFF" stroke-miterlimit="10" points="1047.687,182.726 1047.687,259.822 890.534,259.822 
			890.534,384.271 777.271,384.271 		"/>
		<line fill="none" stroke="#FFFFFF" stroke-miterlimit="10" x1="1061.846" y1="183.333" x2="1061.846" y2="259.822"/>
		<line fill="none" stroke="#FFFFFF" stroke-miterlimit="10" x1="1073.885" y1="183.333" x2="1073.885" y2="259.822"/>
		<polyline fill="none" stroke="#FFFFFF" stroke-miterlimit="10" points="1090.869,182.118 1090.869,246.469 1119.183,246.469 		"/>
		<polyline fill="none" stroke="#FFFFFF" stroke-miterlimit="10" points="1097.949,183.333 1097.949,240.397 1119.183,240.397 		"/>
		<polyline fill="none" stroke="#FFFFFF" stroke-miterlimit="10" points="1175.108,237.361 1235.988,237.361 1235.988,173.62 		"/>
		<polyline fill="none" stroke="#FFFFFF" stroke-miterlimit="10" points="1243.069,176.046 1243.068,244.646 1175.108,244.646 		"/>
		<polyline fill="none" stroke="#FFFFFF" stroke-miterlimit="10" points="1251.563,175.441 1251.563,301.718 1068.927,301.718 		"/>
		<polyline fill="none" stroke="#FFFFFF" stroke-miterlimit="10" points="1258.642,175.441 1258.642,307.177 1068.927,307.177 		"/>
		<polyline fill="none" stroke="#FFFFFF" stroke-miterlimit="10" points="1199.892,321.743 1110.69,321.743 1110.69,373.95 
			1072.469,373.95 		"/>
		<polyline fill="none" stroke="#FFFFFF" stroke-miterlimit="10" points="1199.182,342.385 1119.185,342.388 1119.185,380.021 
			1072.469,380.021 		"/>
		<polyline fill="none" stroke="#FFFFFF" stroke-miterlimit="10" points="1199.182,360.596 1126.266,360.596 1126.266,385.483 
			1071.76,385.483 		"/>
		<polyline fill="none" stroke="#FFFFFF" stroke-miterlimit="10" points="1200.594,379.414 1136.177,379.414 1136.178,391.555 
			1072.469,391.555 		"/>
		<line fill="none" stroke="#FFFFFF" stroke-miterlimit="10" x1="1202.012" y1="398.232" x2="1072.469" y2="398.232"/>
		<polyline fill="none" stroke="#FFFFFF" stroke-miterlimit="10" points="1202.721,409.769 1126.266,409.768 1126.266,403.696 
			1073.177,403.696 		"/>
		<line fill="none" stroke="#FFFFFF" stroke-miterlimit="10" x1="1283.419" y1="349.062" x2="1283.419" y2="426.769"/>
		<line fill="none" stroke="#FFFFFF" stroke-miterlimit="10" x1="1266.429" y1="349.062" x2="1266.429" y2="427.979"/>
		<line fill="none" stroke="#FFFFFF" stroke-miterlimit="10" x1="986.81" y1="390.948" x2="776.563" y2="390.948"/>
		<line fill="none" stroke="#FFFFFF" stroke-miterlimit="10" x1="987.52" y1="397.02" x2="776.563" y2="397.02"/>
		<line fill="none" stroke="#FFFFFF" stroke-miterlimit="10" x1="703.65" y1="390.948" x2="310.768" y2="390.948"/>
		<line fill="none" stroke="#FFFFFF" stroke-miterlimit="10" x1="703.65" y1="398.844" x2="310.768" y2="398.844"/>
		<polyline fill="none" stroke="#FFFFFF" stroke-miterlimit="10" points="704.358,404.304 704.358,418.266 96.983,418.266 
			96.983,404.912 		"/>
		<line fill="none" stroke="#FFFFFF" stroke-miterlimit="10" x1="236.438" y1="393.983" x2="136.62" y2="393.983"/>
		<line fill="none" stroke="#FFFFFF" stroke-miterlimit="10" x1="237.854" y1="387.307" x2="137.33" y2="387.307"/>
		<polyline fill="none" stroke="#FFFFFF" stroke-miterlimit="10" points="77.869,300.496 77.87,339.956 251.304,339.95 
			251.304,372.736 		"/>
		<polyline fill="none" stroke="#FFFFFF" stroke-miterlimit="10" points="69.374,299.89 69.374,346.026 244.225,346.026 
			244.225,372.736 		"/>
		<polyline fill="none" stroke="#FFFFFF" stroke-miterlimit="10" points="247.764,406.731 247.764,434.656 37.519,434.656 
			37.519,489.9 		"/>
		<polyline fill="none" stroke="#FFFFFF" stroke-miterlimit="10" points="254.844,406.731 254.844,441.334 48.845,441.343 
			48.845,491.121 		"/>
		<polyline fill="none" stroke="#FFFFFF" stroke-miterlimit="10" points="261.214,406.731 261.214,447.405 225.82,447.405 
			225.82,489.9 		"/>
		<polyline fill="none" stroke="#FFFFFF" stroke-miterlimit="10" points="267.585,406.125 267.585,453.477 235.026,453.477 
			235.021,489.302 		"/>
		<polyline fill="none" stroke="#FFFFFF" stroke-miterlimit="10" points="274.664,405.517 274.664,452.262 344.038,452.262 
			344.038,489.9 		"/>
		<polyline fill="none" stroke="#FFFFFF" stroke-miterlimit="10" points="281.743,406.731 281.743,446.192 351.825,446.192 
			351.825,489.294 		"/>
		<polyline fill="none" stroke="#FFFFFF" stroke-miterlimit="10" points="288.115,407.344 288.115,439.513 405.627,439.513 
			405.626,546.964 		"/>
		<polyline fill="none" stroke="#FFFFFF" stroke-miterlimit="10" points="294.485,407.344 294.485,432.841 414.829,432.843 
			414.828,547.571 		"/>
		<line fill="none" stroke="#FFFFFF" stroke-miterlimit="10" x1="165.65" y1="495.971" x2="201.751" y2="495.971"/>
		<line fill="none" stroke="#FFFFFF" stroke-miterlimit="10" x1="165.65" y1="503.861" x2="201.751" y2="503.861"/>
		<polyline fill="none" stroke="#FFFFFF" stroke-miterlimit="10" points="40.351,512.969 40.351,631.344 218.74,631.344 
			218.74,621.635 		"/>
		<polyline fill="none" stroke="#FFFFFF" stroke-miterlimit="10" points="230.775,621.03 230.775,641.664 70.79,641.664 		"/>
		<polyline fill="none" stroke="#FFFFFF" stroke-miterlimit="10" points="56.632,512.969 56.632,559.715 140.872,559.719 
			140.872,597.955 		"/>
		<line fill="none" stroke="#FFFFFF" stroke-miterlimit="10" x1="225.82" y1="510.536" x2="225.82" y2="597.349"/>
		<line fill="none" stroke="#FFFFFF" stroke-miterlimit="10" x1="234.315" y1="512.36" x2="234.315" y2="597.349"/>
		<polyline fill="none" stroke="#FFFFFF" stroke-miterlimit="10" points="149.367,598.57 149.367,559.719 390.76,559.719 		"/>
		<line fill="none" stroke="#FFFFFF" stroke-miterlimit="10" x1="262.63" y1="606.456" x2="392.174" y2="606.456"/>
		<line fill="none" stroke="#FFFFFF" stroke-miterlimit="10" x1="261.922" y1="612.525" x2="392.882" y2="612.525"/>
		<line fill="none" stroke="#FFFFFF" stroke-miterlimit="10" x1="413.412" y1="570.638" x2="413.412" y2="599.173"/>
		<line fill="none" stroke="#FFFFFF" stroke-miterlimit="10" x1="421.198" y1="571.853" x2="421.198" y2="599.177"/>
		<polyline fill="none" stroke="#FFFFFF" stroke-miterlimit="10" points="487.032,448.62 487.032,560.929 444.561,560.927 		"/>
		<line fill="none" stroke="#FFFFFF" stroke-miterlimit="10" x1="499.775" y1="448.62" x2="499.775" y2="616.777"/>
		<line fill="none" stroke="#FFFFFF" stroke-miterlimit="10" x1="570.565" y1="488.685" x2="570.565" y2="547.571"/>
		<line fill="none" stroke="#FFFFFF" stroke-miterlimit="10" x1="617.285" y1="488.685" x2="617.285" y2="549.393"/>
		<line fill="none" stroke="#FFFFFF" stroke-miterlimit="10" x1="575.521" y1="560.32" x2="615.865" y2="560.32"/>
		<polyline fill="none" stroke="#FFFFFF" stroke-miterlimit="10" points="530.928,633.166 705.774,633.166 705.774,571.245 		"/>
		<polyline fill="none" stroke="#FFFFFF" stroke-miterlimit="10" points="714.978,571.245 714.978,634.381 1033.529,634.385 
			1033.529,571.25 		"/>
		<polyline fill="none" stroke="#FFFFFF" stroke-miterlimit="10" points="712.146,403.094 712.146,439.513 686.662,439.513 
			686.66,472.302 642.776,472.302 642.771,547.57 		"/>
		<polyline fill="none" stroke="#FFFFFF" stroke-miterlimit="10" points="720.641,403.696 720.641,446.192 696.57,446.192 
			696.57,481.4 651.974,481.4 651.974,547.57 		"/>
		<polyline fill="none" stroke="#FFFFFF" stroke-miterlimit="10" points="729.135,403.696 729.135,455.904 707.19,455.904 
			707.19,547.57 		"/>
		<polyline fill="none" stroke="#FFFFFF" stroke-miterlimit="10" points="737.635,403.696 737.635,465.011 715.69,465.011 
			715.686,548.177 		"/>
		<polyline fill="none" stroke="#FFFFFF" stroke-miterlimit="10" points="746.831,403.696 746.831,464.403 768.068,464.402 
			768.069,549.39 		"/>
		<polyline fill="none" stroke="#FFFFFF" stroke-miterlimit="10" points="754.618,404.304 754.618,455.904 775.854,455.904 
			775.855,549.39 		"/>
		<polyline fill="none" stroke="#FFFFFF" stroke-miterlimit="10" points="762.406,403.696 762.406,446.802 839.567,446.802 
			839.567,547.575 		"/>
		<polyline fill="none" stroke="#FFFFFF" stroke-miterlimit="10" points="769.485,404.304 769.485,440.119 847.354,440.12 
			847.354,548.177 		"/>
		<line fill="none" stroke="#FFFFFF" stroke-miterlimit="10" x1="838.858" y1="570.031" x2="838.858" y2="604.635"/>
		<line fill="none" stroke="#FFFFFF" stroke-miterlimit="10" x1="845.938" y1="571.245" x2="845.938" y2="605.241"/>
		<polyline fill="none" stroke="#FFFFFF" stroke-miterlimit="10" points="991.056,403.094 991.056,440.726 947.167,440.728 
			947.167,546.969 		"/>
		<line fill="none" stroke="#FFFFFF" stroke-miterlimit="10" x1="868.593" y1="560.32" x2="943.628" y2="560.32"/>
		<line fill="none" stroke="#FFFFFF" stroke-miterlimit="10" x1="998.136" y1="404.304" x2="998.136" y2="485.649"/>
		<line fill="none" stroke="#FFFFFF" stroke-miterlimit="10" x1="985.393" y1="508.719" x2="985.393" y2="547.571"/>
		<polyline fill="none" stroke="#FFFFFF" stroke-miterlimit="10" points="1007.344,404.911 1007.344,464.402 1039.901,464.402 
			1039.902,546.963 		"/>
		<polyline fill="none" stroke="#FFFFFF" stroke-miterlimit="10" points="1015.835,403.094 1015.835,459.552 1100.079,459.552 
			1100.073,549.998 		"/>
		<polyline fill="none" stroke="#FFFFFF" stroke-miterlimit="10" points="1022.911,403.094 1022.911,454.09 1108.572,454.091 
			1108.567,551.219 		"/>
		<polyline fill="none" stroke="#FFFFFF" stroke-miterlimit="10" points="1029.991,403.094 1029.991,449.224 1163.78,449.226 
			1163.781,548.778 		"/>
		<polyline fill="none" stroke="#FFFFFF" stroke-miterlimit="10" points="1037.069,403.094 1037.069,443.155 1172.277,443.156 
			1172.277,548.783 		"/>
		<polyline fill="none" stroke="#FFFFFF" stroke-miterlimit="10" points="1044.149,403.094 1044.149,437.691 1216.876,437.691 
			1216.884,550.606 		"/>
		<polyline fill="none" stroke="#FFFFFF" stroke-miterlimit="10" points="1051.229,403.094 1051.229,432.227 1226.785,432.229 
			1226.785,550.607 		"/>
		<polyline fill="none" stroke="#FFFFFF" stroke-miterlimit="10" points="1058.307,403.696 1058.307,426.772 1239.529,426.766 
			1239.529,549.391 		"/>
		<polyline fill="none" stroke="#FFFFFF" stroke-miterlimit="10" points="1066.094,403.094 1066.094,422.515 1248.727,422.515 
			1248.732,548.177 		"/>
		<line fill="none" stroke="#FFFFFF" stroke-miterlimit="10" x1="1043.441" y1="571.245" x2="1043.441" y2="614.953"/>
		<line fill="none" stroke="#FFFFFF" stroke-miterlimit="10" x1="1102.904" y1="571.853" x2="1102.904" y2="616.176"/>
		<line fill="none" stroke="#FFFFFF" stroke-miterlimit="10" x1="1226.079" y1="568.215" x2="1226.079" y2="606.456"/>
		<line fill="none" stroke="#FFFFFF" stroke-miterlimit="10" x1="1236.698" y1="571.854" x2="1236.698" y2="608.885"/>
		<polyline fill="none" stroke="#FFFFFF" stroke-miterlimit="10" points="550.031,219.756 504.023,219.756 504.023,335.102 
			442.436,335.098 		"/>
	</g>
</g>
</svg>
